<?xml version="1.0" encoding="utf-8"?>
<!-- Generator: Adobe Illustrator 25.4.1, SVG Export Plug-In . SVG Version: 6.00 Build 0)  -->
<svg version="1.1" id="Layer_1" xmlns="http://www.w3.org/2000/svg" xmlns:xlink="http://www.w3.org/1999/xlink" x="0px" y="0px"
	 viewBox="0 0 100 100" style="enable-background:new 0 0 100 100;" xml:space="preserve">
<style type="text/css">
	.st0{fill:#834598;}
	.st1{fill:#117F40;}
	.st2{fill-rule:evenodd;clip-rule:evenodd;fill:#834598;}
	.st3{fill-rule:evenodd;clip-rule:evenodd;fill:#1A1A1A;}
	.st4{fill-rule:evenodd;clip-rule:evenodd;fill:#FFFFFF;}
	.st5{fill-rule:evenodd;clip-rule:evenodd;fill:#221F1F;}
	.st6{fill-rule:evenodd;clip-rule:evenodd;fill:#117F40;}
	.st7{fill:#EA2427;}
</style>
<g>
	<g>
		<path class="st0" d="M52.2,92.1c-5.1,0-10.1-0.9-14.9-2.8c-4.6-1.8-8.8-4.3-12.5-7.6C17.4,75,12.5,66,11.2,56.3l0.8-0.1
			c2.7,20,20,35.1,40.2,35.1c12.2,0,23.6-5.3,31.3-14.6l0.6,0.5c-1.9,2.3-4,4.4-6.4,6.2c-2.4,1.8-4.9,3.4-7.6,4.7
			c-2.7,1.3-5.6,2.3-8.6,3C58.5,91.7,55.3,92.1,52.2,92.1z M12.7,41.7l-0.8-0.2c1.2-4.3,3-8.4,5.6-12.2c2.5-3.7,5.6-7.1,9.1-9.9
			c3.6-2.8,7.6-5.1,11.8-6.6c4.4-1.6,9-2.4,13.7-2.4c5.9,0,13,1.6,18.8,4.4l-0.3,0.7c-5.7-2.7-12.6-4.3-18.5-4.3
			C34,11.2,17.4,24,12.7,41.7z"/>
	</g>
	<g>
		<path class="st1" d="M52.3,95.6c-6,0-11.9-1.2-17.4-3.5c-2.6-1.1-5.2-2.5-7.6-4.1c-2.4-1.6-4.6-3.4-6.6-5.4c-2-2-3.9-4.2-5.5-6.5
			c-1.6-2.4-3-4.9-4.1-7.5c-2.3-5.4-3.5-11.2-3.5-17.2s1.2-11.7,3.5-17.2c1.1-2.6,2.5-5.1,4.1-7.5c1.6-2.3,3.4-4.5,5.5-6.5
			c2-2,4.2-3.8,6.6-5.4c2.4-1.6,4.9-3,7.6-4.1c5.5-2.3,11.4-3.5,17.4-3.5c3.5,0,6.9,0.3,10,1c3.1,0.6,6.1,1.6,8.9,2.9
			C74,12.4,76.6,14,79,16c2.4,1.9,4.6,4.2,6.7,6.7l-1.1,0.9c-8-9.9-18.8-14.9-32.3-14.9C28.4,8.7,9,27.8,9,51.4s19.4,42.7,43.2,42.7
			S95.5,75,95.5,51.4c0-8-1.7-14.3-5.8-20.9l1.2-0.8c2.1,3.4,3.6,6.7,4.6,10.2c1,3.5,1.5,7.3,1.5,11.5c0,6-1.2,11.7-3.5,17.2
			c-1.1,2.6-2.5,5.1-4.1,7.5c-1.6,2.3-3.4,4.5-5.5,6.5c-2,2-4.2,3.8-6.6,5.4c-2.4,1.6-4.9,3-7.6,4.1C64.1,94.4,58.3,95.6,52.3,95.6z
			"/>
	</g>
	<g>
		<path class="st2" d="M20.5,76.8h62.8C75.9,85.6,67,90.4,53.2,91.4C40.5,92.3,29.2,87.1,20.5,76.8"/>
	</g>
	<g>
		<path class="st3" d="M35.4,61c-0.8-0.7-0.7-1.2-1.7-2c-0.7-0.5-1.5-0.8-2.5-1c-3.3-0.6-3.6,0.3-6,0.8c0,0-0.1-0.1-0.1-0.1
			l-0.4-0.6c-0.3-0.5-0.3,0.1-0.2-0.8c0.2-1.7,1.6-2.7,0.4-4.8c-0.7,0-0.9,0.1-1.2,0.3c-0.7-1.5-1.6-0.6-1.8,0.7
			c-0.2,1.3,0.2,2.4,0.3,3.6c-1.4,0.2-2.1,1.6-2.3,2.9c-0.4,1.8-0.5,2.4,2,2.5c0.3,2.1,0.8,1.7,2.1,2.7c0.1,1.9-2.4,0.5-2.3,2.1
			c1.4,0.5,2.8-0.1,3.9-0.3c2.3-0.5,1.1-2.1,2.9-1.3c0.5,1.2-0.1,0.6-0.2,1.7c1.3,0,0.9,0.3,1.3-0.8c0.2-0.5,0.4-0.7,0.8-1
			c1.1-0.9,1.8-0.1,3.2-0.1l0.5-0.8c0.3,0.4,0.1,0.3,0.2,0.6c0.4,0.6,1,0.4,1.3,1.1c-0.7,0.8-1.6,0.2-1.9,1c3.7,0.5,2.2-1.9,3.1-2.5
			c0.4-0.3,0.4,0.1,1.2,0.1c0.4-3.2-0.4-6,0.8-9.2c0.5-1.2,0.9-2.5,1-3.9c0.3-3.6,0.5-2.2,1.4-3.5c1.2-1.7-0.9-4-1.3-5.6
			c-0.1-0.6-0.6-1.2-0.9-1.5c-1.1-1.3-0.6-2-3-1c-1.2,0.5-1.1-0.1-1.9,0.2c-1,0.4-1.1,1.4-2.4,0c-0.6-0.7-1.5-0.9-0.9-2.2
			c0.3-0.6,1.6-2.1,2-2.6c0.6-0.7,0.5-0.4,0.7-1.5c0.3-1.7,1.4-3,3-3.6c0.1-0.9,0-1.5,0.5-2.1c1.1,0.2,1,1.3,1.9,1.6
			c0.5-0.8,0.5-1.8,1.4-2.1c0.3,0.2,0.3,0.2,0.6,0.7c0.5,1,0.1,2.1,0.8,2.9c0.9,1,0.8,0.1,1.7,0.7c0.5,0.3,0.6,0.9,0.9,1.5
			c0.5,0.2,0.9,0.2,1.3,0.5c0.4,0.3,0.4,0.7,0.8,0.9c0.7,0.3,2.2,0.3,2.9,0.7c0.9,0.4-0.1,0.4,1.2,0.2c1.2-0.1,0.6,0.1,1.4,0.2
			c0.8,0.1,1.6-0.6,2.9-0.4c2.3,0.4,1.5-0.2,2.9,0.2c1.7,0.5,1.4-0.1,2.7-0.3c1.1-0.2,7-0.1,8.2,0.3c1.7,0.6,1.1-0.4,2.5-0.1
			l1.3,0.1c0.2,0,0.5,0.1,0.8,0.1c1.4,0.1,1,0.5,1.9,0.7c0.9,0.2,0.6-0.2,1.4,0.4c0.5,0.4,0.6,0.2,1.3,0.5c0.8,0.3,1.4,1,2.1,1.4
			c0.9,0.4,1.2,0.9,1.8,1.7c0.4,0.5,0.1,0.9,1,2.5c0.5,0.9,0.4,1.7-0.2,2.5c-5.9-4.6-18.9-0.2-25.4,0.1c-1.5,0.1-2.8,0.3-4.2,0.7
			c-4.6,1.6-2.5,2.6-4.9-0.3c-0.5-0.6,0-0.3-0.6-0.4c-0.7,0.7-0.5,1.7-0.9,2.5c-1.3-0.3-1.4-1.2-1.7-2.4c-0.6,0.2-0.6,0.2-0.8,1.5
			c-0.1,0.7,0.1,1.3,0.4,1.8c0.8,1.3,1.4,0.3,1.8,2.3c0.3,1.7,0.6,2.2-0.5,3.3c-1.3,1.4-1.5,1-2.4,1.5c0.1,0.9,0.7,1.6,1.2,2
			c1.1,0.9,1.3,0.3,2.3,0.2c0.6,1.7,0.4,3.6-0.1,5.3c-0.6,2-2.2,2.7-2.2,3.5l2.6,0c0.5-0.8,0.6-1.2,1.2-1.9c0.8-0.9,0.5-0.5,1.1-1.8
			c0.5-4.6-0.2-2.5-0.6-5c3.4,0.1,4.4-0.8,5.5-0.2c3.3,1.6,3.9-0.1,3.8,2.8c-0.9-0.7-0.5-1-1.2-1.5c-0.7-0.2-1.4-0.2-1.8,0.4
			c-0.5,0.8-0.1,1.3,0,2.1c-2.3,0.1-2.2,1.4-5.3,1.4c0.2,0.2,1.9,1.7,2.7,1.9c0.8,0.2,1.2,0.1,1.7,0.6c0.5,0.6,0.5,0.7,1.7,0.6
			c2.5,0,3.2-1,3.6-3.2c0.3-1.5,0.4-1.2,0.7-1.3c0.8,3.4-1.3,3.7-1.5,4.8l2,0c0.4-0.6,1-1.2,1.1-1.7c0.1-0.2,0.5-4.8,1.4-6.8
			c2.3-0.1,5,1.6,12.5,1.5c0.2,1.4,0.6,2.8,0.3,4.2c-0.5,2-1.8,0.9-1.8,2.5c2.3,0.1,2.6-0.9,3.4-2.7c0.3-0.7,0.6-1.5,0.8-2.3
			c0.2-0.7,0.3-1.8,0.6-2.3c0.6,0.7-0.4,3-0.5,4.2c-0.1,1,0.1,1.8-0.6,2.2c-0.8,0.4-1,0-1.1,1.5c2.5,0,2.8,0.1,4.4-1
			c0.8-0.6,0.7-1,0.7-2.1c0-0.9,0.4-2.8,0.6-4.9c0.1-1.9,1.9-1.3,2.5-5.4c0.5,1.2,0.6,5.5-0.4,7.7c-0.5,1.2-0.3,1.1-0.4,2.4
			c0,0-1.5,1.3-2.1,3.3c1.1,0,4.2,0.2,5-0.1l-0.1-2.4c0.9-0.2,0.2,0.3,1.3,0.4c0-0.7-0.3-1.4-0.4-2.2c-0.4-3.3,0.6-8.3,1.3-11.6
			c0.9-4.4,0.4-1.4,0.2-4.3c-0.4-0.3-1.1-1.8-1.4-2.3c-1.4-2.9-1.5-6.3-0.9-9.4c0.4-2.2,0.8-3.7,0.9-6.2c0.1-1.9-0.4-5.3,1.3-5.9
			c0.4,0.5,0.7,5.5,0.9,6.8c0.6,3.2,3.9,7.7,0.2,11.5c-2.5,2.6-1.5,3.3-0.8,5.4c0.5,0.3,0.8,1.1,1.2,1.5c0.4,0.5,0.8,1.1,1.3,1.4
			c-1.3-4.2-0.9-4.1,1.3-6.8c1.9-2.5,1.7-3.8,0.4-7c-0.9-2.4-1.7-4.4-2.4-7.1c-0.7-3-0.2-5.7-0.8-8.5c-0.5-2.7-2.1-4.5-3.9-5.6
			c-3.8-2.2-5.6-0.6-7.6-1c-0.8-0.2-0.9-0.4-2-0.4c-3.5-0.1-6.7,1.2-10.2,1.4c-3.6,0.2-10.3,0.9-13.3,0.6c-3.5-0.4-5.4,0-8.6,0.5
			c-23,3.3-16.7,7.3-27.1,19.7c-1.2,1.4-3.3,3.5-4.8,4.5c-0.8-0.4-0.8-1.1-2.1-1c-1.6,0.1-0.3,0.6-2.3,0c-0.8,0.4-1.3,1-2.3,1.4
			c-0.9,0.4-1.7,0.5-2.5,0.8c2.2,0.8,3.1-0.8,3.9-0.2c1.4,1.2-0.7,2.4-1.1,2.9C5,46.2,6.1,48,5.3,50.2c-0.8,2.3-1.6,4.8-2.8,6.5
			c-0.8,1.1,0.2,2.5,0.8,3.2c2.1,2.7,4.8-0.4,5.9-1.5c0.9-1,1.8-1,3.1-1.4c5.1-1.9,4.2-5.7,9.6-9c1.1-0.7,2.8-0.8,4.2-0.4
			c1,0.3,1.4,1.8,2.1,2.4c0.5,0.5,0.9,0.5,1.5,0.9c0.5,0.3,0.8,0.7,1.4,0.9c1,0.3,1.2-0.2,2.1-0.2c0.8,0,0.8,0.4,2,0.3
			c-0.4,6.8,0.9,4.4,0.3,8.9 M56.1,61.3c0.8-0.1,1,0.4,1.9,0.6c0.2,3.8-2,5-3.1,4.4c0.1-1.2,1.9-0.6,2.5-2
			C58,62.4,56,62.6,56.1,61.3z"/>
	</g>
	<g>
		<path class="st4" d="M11.5,66.8H93c-1.5,3.9-3.5,7.1-5.7,10l-70.6-0.4C14.7,73.5,12.8,70.4,11.5,66.8"/>
	</g>
	<g>
		<rect x="16.1" y="76.1" class="st5" width="72.3" height="0.7"/>
	</g>
	<g>
		<path class="st6" d="M83.4,62.5c-0.6-1.6-0.6-3.5-2-3.9c1.6,1.5,1.5,5.1,1.5,7.7l8.4,0.1c0.4-1.8,1.4-3.1,2.1-4.1
			c-0.4,0.1-0.9,0.5-1.1,0.7L91.4,64c0.2-1.5,0.7-2.3,1.3-3.4c-1,0.5-1.3,1.8-1.7,2.3c0.1-1.9,0.5-2.7,1.2-4.1
			c-1.3,0.9-1.2,1.8-1.6,2.7L90.3,62c0-2.4,0.3-3.7,0.9-5.9c-1,1.1-1.2,2.9-1.4,4.7c0.3-1-0.9-4.6-1.8-5.2c0.2,0.9,1.4,4.3,0.8,4.9
			l-0.3-0.3c-0.7-0.9-0.5-0.8-0.4-1.2c-0.4,0.1-0.3,0.1-0.7-0.1c0.2,0.5-0.1,1.1-0.7,1.5l-0.1-0.2c0-0.3-0.1,0.1,0-0.4
			c0,0,0.1-0.6,0.1-0.6l0.9-3.6c-1.2,1-1.6,3.1-1.8,4.9c-0.1-0.6-0.3-0.9,0.2-1.3c-1.3-1-0.5-3.1-0.4-3.7c-0.4,0.2-0.5,0.5-0.7,0.8
			c-0.2-0.2-0.4-0.5-0.5-0.7c0.4,1,0.4,1.5-0.4,3.1c-0.7-0.3-0.4-0.5-0.9-1.7c-0.2-0.7-0.8-1.3-0.8-1.6C83.3,57.8,83.6,60,83.4,62.5
			 M85,60.6c-0.2-0.8-0.1-1.7,0.3-2.5C85.5,59.4,85.7,59.9,85,60.6z M88,60C88,59.9,88,59.9,88,60l0.4,1L88,61.5
			c-0.2-0.2-0.2-0.3-0.5-0.6L88,60z"/>
	</g>
	<g>
		<path class="st6" d="M81.8,63.3c0,0-0.1-0.1-0.1-0.1c0,0-0.1-0.1-0.1-0.1c-0.6-0.5-0.6-0.8-1.4-1l0.7,0.9c1.1,1.5,1,2.9,1.6,3.3
			c0.7-0.8-0.2-4.7-1.9-5.9C81.2,61.1,81.6,62,81.8,63.3"/>
	</g>
	<g>
		<path class="st6" d="M13.4,63.6C13,62.3,13,61,11.9,60.6c1.2,1.1,1.1,3.8,1.1,5.7l6.2,0.1c0.3-1.3,1-2.3,1.6-3.1
			c-0.3,0.1-0.6,0.4-0.8,0.5l-0.6,0.8c0.2-1.1,0.5-1.7,1-2.5c-0.7,0.3-1,1.4-1.3,1.7c0.1-1.4,0.4-2,0.9-3c-1,0.7-0.9,1.3-1.2,2
			l-0.2,0.4c0-1.8,0.2-2.8,0.7-4.3c-0.7,0.9-0.9,2.2-1,3.5c0.2-0.7-0.7-3.4-1.3-3.9c0.1,0.7,1,3.2,0.6,3.7L17.3,62
			c-0.5-0.7-0.4-0.6-0.3-0.9c-0.3,0.1-0.3,0.1-0.5,0c0.1,0.4-0.1,0.8-0.5,1.1L16,62c0-0.2,0,0.1,0-0.3c0,0,0.1-0.5,0.1-0.5l0.7-2.7
			c-0.9,0.7-1.2,2.3-1.4,3.6c-0.1-0.5-0.2-0.6,0.1-0.9c-0.9-0.8-0.4-2.3-0.3-2.7c-0.3,0.2-0.4,0.4-0.5,0.6c-0.1-0.1-0.3-0.3-0.4-0.5
			c0.3,0.7,0.3,1.1-0.3,2.3c-0.5-0.3-0.3-0.4-0.6-1.3c-0.2-0.5-0.6-1-0.6-1.2C13.3,60.1,13.6,61.7,13.4,63.6 M14.6,62.2
			c-0.1-0.6,0-1.3,0.2-1.8C15,61.3,15.1,61.7,14.6,62.2z M16.8,61.7C16.8,61.7,16.8,61.7,16.8,61.7l0.3,0.7l-0.3,0.4
			c-0.1-0.2-0.2-0.2-0.4-0.4L16.8,61.7z"/>
	</g>
	<g>
		<path class="st6" d="M12.2,64.2C12.2,64.1,12.2,64.1,12.2,64.2c-0.1,0-0.1-0.1-0.2-0.1c-0.4-0.4-0.4-0.6-1-0.8l0.5,0.7
			c0.8,1.1,0.7,2.1,1.2,2.4c0.5-0.6-0.2-3.5-1.4-4.4C11.8,62.6,12.1,63.2,12.2,64.2"/>
	</g>
	<g>
		<rect x="10.8" y="65.9" class="st5" width="83.1" height="0.8"/>
	</g>
	<g>
		<path class="st7" d="M19.5,69.1l-0.4,1.1L19,70.1c0,0,0,0,0-0.1c0-0.1,0-0.2-0.1-0.2c-0.3-0.3-0.7-0.4-1.1-0.4
			c-0.2,0-0.3,0-0.5,0.1c-0.1,0-0.2,0.1-0.2,0.2S17,69.9,17,70c0,0.2,0.1,0.3,0.2,0.3c0.1,0,0.3,0.1,0.5,0.1l0.4,0.1
			c0.2,0,0.4,0.1,0.6,0.1c0.1,0.1,0.3,0.1,0.4,0.2c0.1,0.1,0.2,0.2,0.3,0.4s0.1,0.4,0.1,0.6c0,0.3-0.1,0.6-0.2,0.8
			c-0.1,0.2-0.4,0.4-0.7,0.5c-0.2,0.1-0.5,0.1-0.7,0.1c-0.5,0-0.9-0.1-1.4-0.4c-0.1-0.1-0.2-0.1-0.2-0.1c0,0-0.1,0-0.1,0.1l-0.1,0
			l0.4-1.1l0.1,0c0,0,0,0,0,0c0,0.1,0,0.2,0.1,0.3c0.1,0.1,0.3,0.2,0.5,0.3s0.4,0.1,0.7,0.1c0.2,0,0.4,0,0.6-0.1
			c0.1-0.1,0.2-0.1,0.2-0.2c0.1-0.1,0.1-0.2,0.1-0.3c0-0.1-0.1-0.3-0.2-0.3c-0.1,0-0.3-0.1-0.5-0.1l-0.4-0.1c-0.3,0-0.4-0.1-0.6-0.1
			c-0.1,0-0.2-0.1-0.3-0.2c-0.2-0.1-0.3-0.2-0.4-0.4c-0.1-0.2-0.1-0.4-0.1-0.6c0-0.4,0.1-0.7,0.3-0.9c0.3-0.3,0.7-0.5,1.2-0.5
			c0.2,0,0.4,0,0.6,0.1c0.2,0.1,0.4,0.2,0.7,0.3c0.1,0.1,0.2,0.1,0.2,0.1C19.3,69.1,19.4,69.1,19.5,69.1L19.5,69.1z"/>
		<path class="st7" d="M20.8,71.7v0.9h1.8c0.1,0,0.1,0,0.1,0s0-0.1,0.1-0.2h0.1v1.1h-0.1c0-0.1,0-0.1-0.1-0.2c0,0-0.1,0-0.1,0h-2.6
			v-0.1c0.1,0,0.1,0,0.1-0.1c0,0,0-0.1,0-0.2v-3c0-0.1,0-0.1,0-0.2c0,0-0.1-0.1-0.1-0.1v-0.1h2.6c0.1,0,0.1,0,0.1,0
			c0,0,0-0.1,0.1-0.2h0.1v1.1h-0.1c0-0.1,0-0.1-0.1-0.2c0,0-0.1,0-0.1,0h-1.7V71h1.1c0.1,0,0.1,0,0.1,0c0,0,0.1-0.1,0.1-0.2h0.1v1.1
			H22c0-0.1,0-0.1-0.1-0.2s-0.1,0-0.1,0H20.8z"/>
		<path class="st7" d="M24.1,71.7v1.2c0,0.1,0,0.1,0,0.2c0,0,0.1,0.1,0.1,0.1v0.1h-1v-0.1c0.1,0,0.1,0,0.1-0.1c0,0,0-0.1,0-0.2v-3
			c0-0.1,0-0.1,0-0.2c0,0-0.1-0.1-0.1-0.1v-0.1h1.9c0.2,0,0.4,0,0.6,0c0.1,0,0.2,0.1,0.3,0.2c0.2,0.2,0.3,0.5,0.3,0.9
			c0,0.3-0.1,0.5-0.2,0.7s-0.3,0.3-0.6,0.4l0.5,1c0.1,0.2,0.2,0.3,0.2,0.4s0.1,0.1,0.2,0.1v0.1h-1.2v-0.1c0.1,0,0.1-0.1,0.1-0.1
			c0,0,0-0.1-0.1-0.2l-0.6-1.1H24.1z M24.1,71.1h1c0.2,0,0.3,0,0.3-0.1c0.1-0.1,0.2-0.2,0.2-0.4c0-0.2,0-0.3-0.1-0.3
			s-0.2-0.1-0.4-0.1h-1V71.1z"/>
		<path class="st7" d="M27.6,71.7v0.9h1.8c0.1,0,0.1,0,0.1,0s0-0.1,0.1-0.2h0.1v1.1h-0.1c0-0.1,0-0.1-0.1-0.2c0,0-0.1,0-0.1,0h-2.6
			v-0.1c0.1,0,0.1,0,0.1-0.1c0,0,0-0.1,0-0.2v-3c0-0.1,0-0.1,0-0.2c0,0-0.1-0.1-0.1-0.1v-0.1h2.6c0.1,0,0.1,0,0.1,0
			c0,0,0-0.1,0.1-0.2h0.1v1.1h-0.1c0-0.1,0-0.1-0.1-0.2c0,0-0.1,0-0.1,0h-1.7V71h1.1c0.1,0,0.1,0,0.1,0c0,0,0.1-0.1,0.1-0.2H29v1.1
			h-0.1c0-0.1,0-0.1-0.1-0.2s-0.1,0-0.1,0H27.6z"/>
		<path class="st7" d="M30.9,70.8v2.1c0,0.1,0,0.1,0,0.2c0,0,0.1,0.1,0.1,0.1v0.1h-0.9v-0.1c0.1,0,0.1,0,0.1-0.1c0,0,0-0.1,0-0.2v-3
			c0-0.1,0-0.1,0-0.2c0,0-0.1-0.1-0.1-0.1v-0.1h1.1v0.1c-0.1,0-0.1,0.1-0.1,0.1c0,0.1,0,0.1,0.1,0.2l1.5,2v-2c0-0.1,0-0.1,0-0.2
			c0,0-0.1-0.1-0.1-0.1v-0.1h0.9v0.1c-0.1,0-0.1,0.1-0.1,0.1c0,0,0,0.1,0,0.2v3c0,0.1,0,0.1,0,0.2c0,0,0.1,0.1,0.1,0.1v0.1h-1v-0.1
			c0.1,0,0.1-0.1,0.1-0.1c0,0,0-0.1,0-0.1c0,0-0.1-0.1-0.1-0.2L30.9,70.8z"/>
		<path class="st7" d="M34.8,69.9v3c0,0.1,0,0.1,0,0.2c0,0,0.1,0.1,0.1,0.1v0.1h-1v-0.1c0.1,0,0.1,0,0.1-0.1c0,0,0-0.1,0-0.2v-3
			c0-0.1,0-0.1,0-0.2c0,0-0.1-0.1-0.1-0.1v-0.1h1v0.1c-0.1,0-0.1,0.1-0.1,0.1C34.8,69.8,34.8,69.8,34.8,69.9z"/>
		<path class="st7" d="M37,70.2v2.7c0,0.1,0,0.1,0,0.2c0,0,0.1,0.1,0.1,0.1v0.1h-1v-0.1c0.1,0,0.1,0,0.1-0.1c0,0,0-0.1,0-0.2v-2.7
			h-0.8c-0.1,0-0.1,0-0.1,0c0,0-0.1,0.1-0.1,0.2h-0.1v-1.1h0.1c0,0.1,0,0.1,0.1,0.2c0,0,0.1,0,0.1,0h2.3c0.1,0,0.1,0,0.1,0
			c0,0,0.1-0.1,0.1-0.2h0.1v1.1h-0.1c0-0.1,0-0.1-0.1-0.2c0,0-0.1,0-0.1,0H37z"/>
		<path class="st7" d="M40.1,71.6v1.3c0,0.1,0,0.1,0,0.2c0,0,0.1,0.1,0.1,0.1v0.1h-1v-0.1c0.1,0,0.1-0.1,0.1-0.1c0,0,0-0.1,0-0.2
			v-1.3l-0.8-1.5c-0.1-0.2-0.2-0.3-0.2-0.3c-0.1-0.1-0.1-0.1-0.2-0.1v-0.1h1.3v0.1c-0.1,0-0.2,0.1-0.2,0.2c0,0,0,0.1,0.1,0.3
			l0.4,0.7l0.4-0.7c0.1-0.1,0.1-0.2,0.1-0.3c0-0.1-0.1-0.2-0.2-0.2l0-0.1h1.2v0.1c-0.1,0-0.1,0.1-0.2,0.1c-0.1,0.1-0.1,0.2-0.2,0.3
			L40.1,71.6z"/>
		<path class="st7" d="M45.4,72.1h-1.6l-0.2,0.6c0,0.1,0,0.2,0,0.2c0,0.1,0.1,0.2,0.2,0.2v0.1h-1.1v-0.1c0.1,0,0.1,0,0.2-0.1
			c0,0,0.1-0.1,0.1-0.3l1.3-3.5c0-0.1,0.1-0.2,0.1-0.3c0-0.1,0-0.2-0.1-0.2v-0.1h1.2v0.1c-0.1,0-0.1,0.1-0.1,0.2c0,0.1,0,0.1,0,0.2
			l1.3,3.5c0.1,0.1,0.1,0.2,0.1,0.3c0,0.1,0.1,0.1,0.2,0.1v0.1h-1.3v-0.1c0.1,0,0.2-0.1,0.2-0.2c0,0,0-0.1-0.1-0.2L45.4,72.1z
			 M45.2,71.5l-0.6-1.6L44,71.5H45.2z"/>
		<path class="st7" d="M49.6,71.8h-0.6c-0.1,0-0.1,0-0.1,0c0,0,0,0.1-0.1,0.2h-0.1v-1h0.1c0,0.1,0,0.1,0.1,0.2c0,0,0.1,0,0.1,0h1.3
			v0.1c-0.1,0-0.1,0.1-0.1,0.1s0,0.1,0,0.2v0.8c0,0.1,0,0.1,0,0.2c0,0,0.1,0.1,0.1,0.1v0.1c-0.5,0.4-1.1,0.6-1.6,0.6
			c-0.5,0-0.8-0.1-1.1-0.4c-0.2-0.2-0.3-0.4-0.4-0.6c-0.1-0.3-0.2-0.6-0.2-0.9c0-0.4,0.1-0.8,0.3-1.2c0.3-0.5,0.8-0.8,1.4-0.8
			c0.3,0,0.6,0.1,0.9,0.2c0.1,0.1,0.2,0.1,0.2,0.1c0,0,0.1,0,0.1-0.1l0.1,0l-0.3,0.9l-0.1,0c0,0,0,0,0,0c0-0.1-0.1-0.2-0.2-0.3
			c-0.2-0.2-0.5-0.2-0.7-0.2c-0.3,0-0.6,0.1-0.8,0.3c-0.2,0.2-0.3,0.5-0.3,0.9c0,0.4,0.1,0.7,0.3,0.9c0.2,0.2,0.5,0.3,0.8,0.3
			c0.3,0,0.6-0.1,0.8-0.2V71.8z"/>
		<path class="st7" d="M51.6,71.7v1.2c0,0.1,0,0.1,0,0.2s0.1,0.1,0.1,0.1v0.1h-1v-0.1c0.1,0,0.1,0,0.1-0.1c0,0,0-0.1,0-0.2v-3
			c0-0.1,0-0.1,0-0.2c0,0-0.1-0.1-0.1-0.1v-0.1h1.9c0.2,0,0.4,0,0.6,0c0.1,0,0.2,0.1,0.3,0.2c0.2,0.2,0.3,0.5,0.3,0.9
			c0,0.3-0.1,0.5-0.2,0.7s-0.3,0.3-0.6,0.4l0.5,1c0.1,0.2,0.2,0.3,0.2,0.4c0.1,0.1,0.1,0.1,0.2,0.1v0.1h-1.2v-0.1
			c0.1,0,0.1-0.1,0.1-0.1c0,0,0-0.1-0.1-0.2l-0.6-1.1H51.6z M51.6,71.1h1c0.2,0,0.3,0,0.3-0.1c0.1-0.1,0.2-0.2,0.2-0.4
			c0-0.2,0-0.3-0.1-0.3c-0.1-0.1-0.2-0.1-0.4-0.1h-1V71.1z"/>
		<path class="st7" d="M55.9,69.5c0.5,0,0.8,0.2,1.1,0.5c0.4,0.4,0.5,0.9,0.5,1.5c0,0.6-0.2,1.1-0.5,1.5c-0.3,0.3-0.7,0.5-1.1,0.5
			c-0.4,0-0.8-0.1-1.1-0.5c-0.4-0.4-0.5-0.9-0.5-1.5c0-0.6,0.2-1.1,0.5-1.5C55.1,69.6,55.4,69.5,55.9,69.5z M55.9,70.2
			c-0.3,0-0.5,0.1-0.7,0.4c-0.2,0.2-0.3,0.5-0.3,0.9c0,0.3,0.1,0.6,0.3,0.9c0.2,0.2,0.4,0.4,0.7,0.4c0.3,0,0.5-0.1,0.7-0.4
			c0.2-0.2,0.3-0.5,0.3-0.8c0-0.4-0.1-0.7-0.3-0.9C56.4,70.3,56.2,70.2,55.9,70.2z"/>
		<path class="st7" d="M59.4,72.1l0.7-2c0-0.1,0.1-0.2,0.1-0.3c0-0.1-0.1-0.2-0.2-0.2v-0.1h1.1v0.1c-0.1,0-0.1,0.1-0.1,0.1
			s-0.1,0.1-0.1,0.3l-1,2.7c0,0.1-0.1,0.2-0.1,0.2c0,0.1,0.1,0.2,0.2,0.2v0.1h-1.1v-0.1c0.1,0,0.2-0.1,0.2-0.2c0-0.1,0-0.1-0.1-0.2
			L58,70c0-0.1-0.1-0.2-0.1-0.3c0,0-0.1-0.1-0.1-0.1v-0.1h1.1v0.1c-0.1,0-0.2,0.1-0.2,0.2c0,0,0,0.1,0.1,0.3L59.4,72.1z"/>
		<path class="st7" d="M62.2,71.7v0.9H64c0.1,0,0.1,0,0.1,0c0,0,0-0.1,0.1-0.2h0.1v1.1h-0.1c0-0.1,0-0.1-0.1-0.2s-0.1,0-0.1,0h-2.6
			v-0.1c0.1,0,0.1,0,0.1-0.1c0,0,0-0.1,0-0.2v-3c0-0.1,0-0.1,0-0.2s-0.1-0.1-0.1-0.1v-0.1h2.6c0.1,0,0.1,0,0.1,0
			c0,0,0.1-0.1,0.1-0.2h0.1v1.1h-0.1c0-0.1,0-0.1-0.1-0.2c0,0-0.1,0-0.1,0h-1.7V71h1.1c0.1,0,0.1,0,0.1,0c0,0,0.1-0.1,0.1-0.2h0.1
			v1.1h-0.1c0-0.1,0-0.1-0.1-0.2s-0.1,0-0.1,0H62.2z"/>
		<path class="st7" d="M66.2,70.2v2.7c0,0.1,0,0.1,0,0.2c0,0,0.1,0.1,0.1,0.1v0.1h-1v-0.1c0.1,0,0.1,0,0.1-0.1c0,0,0-0.1,0-0.2v-2.7
			h-0.8c-0.1,0-0.1,0-0.1,0c0,0-0.1,0.1-0.1,0.2h-0.1v-1.1h0.1c0,0.1,0,0.1,0.1,0.2c0,0,0.1,0,0.1,0H67c0.1,0,0.1,0,0.1,0
			c0,0,0-0.1,0.1-0.2h0.1v1.1h-0.1c0-0.1,0-0.1-0.1-0.2c0,0-0.1,0-0.1,0H66.2z"/>
		<path class="st7" d="M72.2,69.1l-0.4,1.1l-0.1-0.1c0,0,0,0,0-0.1c0-0.1,0-0.2-0.1-0.2c-0.3-0.3-0.7-0.4-1.1-0.4
			c-0.2,0-0.3,0-0.5,0.1c-0.1,0-0.2,0.1-0.2,0.2s-0.1,0.2-0.1,0.3c0,0.2,0.1,0.3,0.2,0.3c0.1,0,0.3,0.1,0.5,0.1l0.4,0.1
			c0.2,0,0.4,0.1,0.6,0.1c0.1,0.1,0.3,0.1,0.4,0.2c0.1,0.1,0.2,0.2,0.3,0.4c0.1,0.2,0.1,0.4,0.1,0.6c0,0.3-0.1,0.6-0.2,0.8
			c-0.1,0.2-0.4,0.4-0.7,0.5c-0.2,0.1-0.5,0.1-0.7,0.1c-0.5,0-0.9-0.1-1.4-0.4c-0.1-0.1-0.2-0.1-0.2-0.1c0,0-0.1,0-0.1,0.1l-0.1,0
			l0.4-1.1l0.1,0c0,0,0,0,0,0c0,0.1,0,0.2,0.1,0.3c0.1,0.1,0.3,0.2,0.5,0.3c0.2,0.1,0.4,0.1,0.7,0.1c0.2,0,0.4,0,0.6-0.1
			c0.1-0.1,0.2-0.1,0.2-0.2c0.1-0.1,0.1-0.2,0.1-0.3c0-0.1-0.1-0.3-0.2-0.3c-0.1,0-0.3-0.1-0.5-0.1l-0.4-0.1c-0.3,0-0.4-0.1-0.6-0.1
			c-0.1,0-0.2-0.1-0.3-0.2c-0.2-0.1-0.3-0.2-0.4-0.4C69,70.5,69,70.3,69,70.1c0-0.4,0.1-0.7,0.3-0.9c0.3-0.3,0.7-0.5,1.2-0.5
			c0.2,0,0.4,0,0.6,0.1c0.2,0.1,0.4,0.2,0.7,0.3c0.1,0.1,0.2,0.1,0.2,0.1C72,69.1,72,69.1,72.2,69.1L72.2,69.1z"/>
		<path class="st7" d="M74.2,70.2v2.7c0,0.1,0,0.1,0,0.2c0,0,0.1,0.1,0.1,0.1v0.1h-1v-0.1c0.1,0,0.1,0,0.1-0.1c0,0,0-0.1,0-0.2v-2.7
			h-0.8c-0.1,0-0.1,0-0.1,0c0,0-0.1,0.1-0.1,0.2h-0.1v-1.1h0.1c0,0.1,0,0.1,0.1,0.2c0,0,0.1,0,0.1,0H75c0.1,0,0.1,0,0.1,0
			c0,0,0-0.1,0.1-0.2h0.1v1.1h-0.1c0-0.1,0-0.1-0.1-0.2c0,0-0.1,0-0.1,0H74.2z"/>
		<path class="st7" d="M77.2,69.5c0.5,0,0.8,0.2,1.1,0.5c0.4,0.4,0.5,0.9,0.5,1.5c0,0.6-0.2,1.1-0.5,1.5c-0.3,0.3-0.7,0.5-1.1,0.5
			c-0.4,0-0.8-0.1-1.1-0.5c-0.4-0.4-0.5-0.9-0.5-1.5c0-0.6,0.2-1.1,0.5-1.5C76.3,69.6,76.7,69.5,77.2,69.5z M77.2,70.2
			c-0.3,0-0.5,0.1-0.7,0.4c-0.2,0.2-0.3,0.5-0.3,0.9c0,0.3,0.1,0.6,0.3,0.9c0.2,0.2,0.4,0.4,0.7,0.4c0.3,0,0.5-0.1,0.7-0.4
			c0.2-0.2,0.3-0.5,0.3-0.8c0-0.4-0.1-0.7-0.3-0.9C77.7,70.3,77.4,70.2,77.2,70.2z"/>
		<path class="st7" d="M80.1,71.7v1.2c0,0.1,0,0.1,0,0.2s0.1,0.1,0.1,0.1v0.1h-1v-0.1c0.1,0,0.1,0,0.1-0.1c0,0,0-0.1,0-0.2v-3
			c0-0.1,0-0.1,0-0.2s-0.1-0.1-0.1-0.1v-0.1h1.9c0.2,0,0.4,0,0.6,0c0.1,0,0.2,0.1,0.3,0.2c0.2,0.2,0.3,0.5,0.3,0.9
			c0,0.3-0.1,0.5-0.2,0.7c-0.1,0.2-0.3,0.3-0.6,0.4l0.5,1c0.1,0.2,0.2,0.3,0.2,0.4s0.1,0.1,0.2,0.1v0.1h-1.2v-0.1
			c0.1,0,0.1-0.1,0.1-0.1c0,0,0-0.1-0.1-0.2l-0.6-1.1H80.1z M80.1,71.1h1c0.2,0,0.3,0,0.3-0.1c0.1-0.1,0.2-0.2,0.2-0.4
			c0-0.2,0-0.3-0.1-0.3s-0.2-0.1-0.4-0.1h-1V71.1z"/>
		<path class="st7" d="M83.6,71.7v0.9h1.8c0.1,0,0.1,0,0.1,0c0,0,0-0.1,0.1-0.2h0.1v1.1h-0.1c0-0.1,0-0.1-0.1-0.2s-0.1,0-0.1,0h-2.6
			v-0.1c0.1,0,0.1,0,0.1-0.1c0,0,0-0.1,0-0.2v-3c0-0.1,0-0.1,0-0.2s-0.1-0.1-0.1-0.1v-0.1h2.6c0.1,0,0.1,0,0.1,0
			c0,0,0.1-0.1,0.1-0.2h0.1v1.1h-0.1c0-0.1,0-0.1-0.1-0.2c0,0-0.1,0-0.1,0h-1.7V71h1.1c0.1,0,0.1,0,0.1,0c0,0,0.1-0.1,0.1-0.2H85
			v1.1h-0.1c0-0.1,0-0.1-0.1-0.2s-0.1,0-0.1,0H83.6z"/>
		<path class="st7" d="M88.8,69.9l-0.3,0.9l-0.1,0c0-0.1,0-0.1-0.1-0.2c-0.1-0.1-0.2-0.2-0.4-0.3s-0.4-0.1-0.6-0.1
			c-0.2,0-0.3,0-0.4,0.1c-0.2,0.1-0.3,0.2-0.3,0.4c0,0.1,0,0.2,0.1,0.2c0.1,0,0.3,0.1,0.5,0.1l0.4,0c0.3,0,0.6,0.1,0.8,0.3
			c0.1,0.1,0.2,0.2,0.3,0.3c0.1,0.2,0.1,0.4,0.1,0.6c0,0.4-0.1,0.7-0.4,0.9c-0.2,0.2-0.6,0.3-1,0.3c-0.4,0-0.8-0.1-1.2-0.4
			c0,0,0,0-0.1,0c0,0-0.1,0-0.1,0.1L86,73l0.3-0.9l0.1,0c0,0,0,0,0,0c0,0.1,0,0.1,0.1,0.1c0.1,0.1,0.2,0.2,0.4,0.3
			c0.2,0.1,0.4,0.1,0.6,0.1c0.2,0,0.3,0,0.5-0.1c0.2-0.1,0.3-0.2,0.3-0.4c0-0.1-0.1-0.2-0.2-0.3c-0.1,0-0.2-0.1-0.4-0.1l-0.4,0
			c-0.2,0-0.4-0.1-0.5-0.1c-0.1,0-0.2-0.1-0.3-0.2c-0.1-0.1-0.2-0.2-0.3-0.4s-0.1-0.3-0.1-0.5c0-0.4,0.1-0.7,0.4-0.9
			c0.2-0.2,0.5-0.3,0.9-0.3c0.2,0,0.4,0,0.5,0.1c0.2,0.1,0.4,0.2,0.6,0.3c0.1,0,0.1,0.1,0.1,0.1C88.7,69.9,88.7,69.9,88.8,69.9
			L88.8,69.9z"/>
	</g>
</g>
</svg>
